<?xml version="1.0" encoding="utf-8"?>
<!-- Svg Vector Icons : http://www.onlinewebfonts.com/icon -->
<!DOCTYPE svg PUBLIC "-//W3C//DTD SVG 1.1//EN" "http://www.w3.org/Graphics/SVG/1.1/DTD/svg11.dtd">
<svg version="1.1" xmlns="http://www.w3.org/2000/svg" xmlns:xlink="http://www.w3.org/1999/xlink" x="0px" y="0px" viewBox="0 0 1000 1000" enable-background="new 0 0 1000 1000" xml:space="preserve" fill="green">
<metadata> Svg Vector Icons : http://www.onlinewebfonts.com/icon </metadata>
<g><g transform="translate(0.000000,512.000000) scale(0.100000,-0.100000)"><path d="M2744.4,4739C3891,3843.1,5118.1,2811.3,5853.2,2120.2l141.7-132.1l-2900.2-2904C736.3-3274.3,185-3835.2,148.6-3913.7c-65.1-137.8-65.1-381,1.9-516.9c59.3-122.5,174.2-237.4,296.7-296.7c135.9-67,379-67,516.9-1.9c78.5,36.4,639.4,587.7,2997.8,2946.1l2904,2900.2l132.1-141.7C7698.6,230.8,8785.9-1063.3,9656.9-2185l243.1-312l-13.4,172.3c-21.1,250.8-97.6,687.2-174.2,993.5C9425.3-198,8833.7,944.8,8039.3,1898.1l-178,214.4l199.1,199.1l197.2,197.2l-436.5,434.6l-434.6,436.5l-197.2-197.2l-199.1-199.1l-214.4,178c-970.6,809.7-2172.7,1422.3-3313.6,1694.2c-262.3,63.2-693,134-909.3,153.1l-170.4,13.4L2744.4,4739z M4352.4,4141.7c754.2-296.7,1531.4-761.9,2188-1313.2l160.8-134l-206.7-206.7L6289.6,2281l-80.4,70.8c-46,38.3-222.1,199.1-392.4,354.1c-379,344.6-982,865.3-1445.3,1248.1c-189.5,155.1-352.2,292.9-363.7,302.5C3979.1,4283.4,4057.6,4258.5,4352.4,4141.7z M7539.7,2652.4l143.6-143.6L7411.4,2237c-264.2-264.2-271.8-269.9-260.3-201c23,149.3-80.4,256.5-229.7,237.4l-76.6-11.5l266.1,268c145.5,145.5,269.9,266.1,275.7,266.1C7392.3,2796,7461.2,2730.9,7539.7,2652.4z M6760.5,2097.2c-9.6-78.5-5.7-90,59.4-155.1c65.1-65.1,76.6-68.9,158.9-59.3l88,9.6l-333.1-333.1c-183.8-183.8-340.8-333.1-352.2-333.1c-24.9,0-277.6,252.7-277.6,277.6c0,13.4,649,679.6,662.3,679.6C6768.2,2183.4,6764.4,2145.1,6760.5,2097.2z M7796.2,1551.7c547.5-683.4,955.2-1382.1,1246.2-2134.4c95.7-245,116.8-313.9,91.9-287.1c-9.6,11.5-189.5,225.9-400.1,478.6c-428.8,516.9-792.5,938-1175.4,1357.2c-141.7,155.1-291,319.7-329.3,363.7l-70.8,78.5l204.8,204.8c162.7,166.5,208.7,201,229.7,183.8C7608.6,1783.3,7698.6,1674.2,7796.2,1551.7z M5950.8,1063.5l143.6-143.6L3452.7-1719.9C1337.4-3835.2,799.4-4361.6,749.7-4373.1c-135.9-28.7-273.7,109.1-245,245c11.5,49.8,537.9,585.8,2647.5,2699.2c1449.1,1449.1,2639.8,2636,2645.6,2636C5803.4,1207.1,5872.3,1142,5950.8,1063.5z"/><path d="M5713.4-2225.2l-1070.1-693l-436.5-928.4l-434.5-928.4l1529.5-5.7c840.4-1.9,2216.8-1.9,3059.1,0l1527.6,5.7L9454-3846.6l-434.6,928.4l-1089.2,693c-599.2,381-1102.6,693-1118,693S6301.1-1844.3,5713.4-2225.2z M7177.9-2883.8c269.9-430.7,495.8-790.6,503.5-804c11.5-19.1-111-641.3-134-677.6c-11.5-21.1-3128-23-3128-1.9c0,7.7,124.4,273.7,273.7,593.4l271.8,578.1l842.3,545.6c463.3,298.6,851.9,545.6,861.4,545.6C6680.1-2104.6,6909.9-2455,7177.9-2883.8z M8085.2-2809.1l612.6-388.6l271.8-578.1c149.3-317.8,273.7-583.9,273.7-591.5c0-9.6-283.3-15.3-631.7-15.3c-518.8,0-631.7,3.8-631.7,26.8c0,13.4,32.5,183.8,74.7,379l72.7,354.1l-398.2,633.6c-220.1,348.4-400.1,639.4-400.1,647.1C7329.1-2328.6,7325.3-2326.7,8085.2-2809.1z"/></g></g>
</svg>