<?xml version="1.0" standalone="no"?>
<!DOCTYPE svg PUBLIC "-//W3C//DTD SVG 20010904//EN"
 "http://www.w3.org/TR/2001/REC-SVG-20010904/DTD/svg10.dtd">
<svg version="1.0" xmlns="http://www.w3.org/2000/svg"
 width="300.000000pt" height="300.000000pt" viewBox="0 0 300.000000 300.000000"
 preserveAspectRatio="xMidYMid meet" xml:space="preserve" >
<metadata>
Created by potrace 1.10, written by Peter Selinger 2001-2011
</metadata>
<g transform="translate(0.000000,300.000000) scale(0.100000,-0.100000)"
fill="#000000" stroke="none">
<path  d="M517 2682 c-12 -13 -17 -37 -17 -80 l0 -62 45 0 45 0 0 -221 0 -221
-45 4 -45 3 0 -581 c0 -521 2 -582 16 -588 30 -12 259 -7 272 6 8 8 12 61 12
171 0 148 -1 159 -17 152 -10 -5 -45 -10 -78 -12 l-60 -5 3 91 c3 91 3 92 -27
120 -43 40 -43 91 0 130 31 29 31 29 28 121 l-4 92 55 -5 c30 -3 66 -8 78 -12
l24 -8 -4 267 c-1 146 0 266 4 266 3 0 14 -21 22 -47 12 -36 66 -108 208 -278
l191 -230 95 -12 c134 -17 134 -21 0 -22 -91 -1 -119 -4 -125 -15 -5 -10 -29
-16 -66 -18 l-59 -3 -93 -223 -93 -223 11 -70 c9 -60 13 -68 29 -63 16 5 18
-1 18 -60 l0 -66 253 0 c178 0 311 -6 452 -20 110 -11 202 -20 205 -20 3 1 -8
8 -23 16 -58 31 -279 56 -567 63 l-275 6 -6 35 c-3 19 -9 47 -13 61 -11 39 18
46 56 14 28 -24 35 -25 164 -25 149 0 187 10 198 55 4 14 6 127 6 251 -1 210
-3 227 -21 242 -10 9 -19 19 -19 23 0 12 43 18 61 8 16 -8 18 -27 19 -198 0
-167 10 -284 25 -299 3 -3 5 116 5 264 l-1 269 -249 235 c-138 129 -286 269
-329 310 l-79 75 -6 83 c-3 45 -2 82 3 82 4 0 16 -29 26 -65 9 -36 25 -71 35
-78 10 -7 119 -109 242 -227 122 -118 264 -253 313 -301 l90 -86 73 -12 c40
-6 77 -9 81 -6 5 2 20 -4 34 -15 14 -11 30 -20 37 -20 6 0 8 -5 5 -11 -4 -6
-1 -10 6 -8 8 1 139 1 292 0 l277 -1 0 -25 0 -25 -323 0 c-311 0 -324 -1 -345
-20 -12 -11 -24 -31 -27 -43 -3 -12 -4 -120 -3 -240 l3 -219 26 -22 26 -23
202 23 c197 22 311 41 311 50 0 7 -421 -20 -497 -32 l-33 -5 0 246 0 245 350
0 350 0 0 49 c0 27 3 56 6 65 6 14 -25 16 -300 16 l-307 0 -152 138 c-84 75
-297 267 -475 426 l-322 289 0 43 c0 74 -19 84 -153 84 -98 0 -116 -3 -130
-18z m208 -37 c24 -24 25 -28 25 -185 0 -136 -2 -160 -15 -160 -13 0 -15 24
-15 154 0 187 -1 189 -97 184 -55 -3 -63 -1 -63 15 0 15 10 17 70 17 62 0 74
-3 95 -25z m-57 -57 c8 -8 12 -49 12 -142 1 -113 3 -134 19 -153 11 -13 29
-23 40 -23 18 0 21 -5 17 -26 -7 -37 -12 -39 -42 -15 -28 22 -41 19 -70 -19
-9 -11 -12 18 -14 125 -1 77 -4 154 -6 170 -3 17 -6 35 -6 42 -1 7 -5 10 -9 7
-4 -2 -11 1 -14 6 -4 6 -18 15 -31 20 -13 5 -24 13 -24 18 0 12 112 2 128 -10z
m221 -156 c20 -4 131 -102 131 -115 0 -6 3 -8 6 -5 3 3 22 -10 43 -31 21 -20
88 -81 149 -135 62 -54 112 -103 112 -107 0 -5 4 -8 8 -7 5 2 53 -37 107 -87
54 -49 119 -109 144 -132 25 -23 43 -44 40 -48 -9 -8 -115 30 -132 47 -8 7
-105 101 -217 208 -374 359 -420 406 -419 426 0 15 2 16 7 4 4 -8 13 -16 21
-18z m-184 -232 c0 -8 -8 -16 -17 -18 -13 -2 -18 3 -18 18 0 15 5 20 18 18 9
-2 17 -10 17 -18z m-50 -74 c-23 -34 -32 -27 -27 24 4 42 4 42 24 22 19 -19
19 -21 3 -46z m103 27 c-2 -10 -10 -18 -18 -18 -8 0 -16 8 -18 18 -2 12 3 17
18 17 15 0 20 -5 18 -17z m-53 -53 c0 -8 -8 -16 -17 -18 -13 -2 -18 3 -18 18
0 15 5 20 18 18 9 -2 17 -10 17 -18z m-59 -16 c-3 -7 2 -15 11 -18 14 -6 14
-9 -1 -31 -9 -13 -16 -29 -16 -35 0 -14 92 -100 102 -94 4 3 10 -7 14 -21 9
-37 -10 -54 -55 -49 -28 2 -46 -2 -64 -16 -22 -18 -25 -28 -29 -108 -3 -73 -8
-93 -25 -112 -12 -12 -25 -36 -28 -51 -7 -30 10 -99 24 -99 17 0 31 -55 31
-124 0 -89 15 -108 93 -116 l52 -5 3 -104 c2 -67 -1 -108 -9 -117 -13 -15
-174 -20 -196 -6 -10 6 -13 130 -13 540 -1 293 2 537 5 542 3 6 17 10 30 10
12 0 25 6 28 14 3 8 15 14 27 13 11 -1 18 -7 16 -13z m368 0 c3 -8 11 -12 17
-8 8 4 9 3 5 -4 -4 -7 -2 -12 3 -12 6 0 48 -36 92 -80 45 -44 86 -80 91 -80 5
0 6 -4 3 -10 -3 -5 -1 -10 5 -10 6 0 8 -5 4 -12 -4 -7 -3 -8 4 -4 12 7 92 -64
92 -82 0 -11 -46 -5 -78 11 -13 6 -45 39 -72 73 -26 34 -60 73 -74 87 -13 14
-22 28 -19 31 4 3 1 6 -7 6 -10 0 -10 3 0 15 11 13 10 14 -2 10 -8 -3 -26 8
-44 27 -38 42 -48 58 -36 58 6 0 13 -7 16 -16z m-256 -31 c-2 -10 -10 -18 -18
-18 -8 0 -16 8 -18 18 -2 12 3 17 18 17 15 0 20 -5 18 -17z m-53 -53 c0 -8 -8
-16 -17 -18 -13 -2 -18 3 -18 18 0 15 5 20 18 18 9 -2 17 -10 17 -18z m52 -36
c8 -20 -8 -36 -26 -25 -15 10 -8 41 9 41 6 0 13 -7 17 -16z m593 -564 l0 -250
-160 0 -160 0 11 24 c17 36 139 132 149 116 6 -9 13 -9 29 -1 l21 12 -26 39
c-15 22 -30 40 -34 40 -12 0 -30 -26 -23 -33 3 -4 -5 -15 -18 -26 -13 -11 -26
-18 -28 -16 -5 5 62 125 71 125 4 0 10 -4 13 -10 10 -16 23 -12 35 10 9 17 4
23 -52 51 -58 29 -63 30 -75 14 -14 -20 -9 -35 13 -35 23 0 17 -19 -40 -125
-35 -66 -67 -111 -94 -133 l-41 -34 -6 34 c-5 27 10 70 79 233 l84 200 123 5
c68 3 125 7 127 8 1 1 2 -110 2 -248z"/>
<path  d="M150 2368 l0 -128 93 1 c50 0 101 4 112 9 22 10 22 10 -20 16 -72 10
-74 12 -65 42 4 16 6 44 4 63 -3 19 -2 44 1 57 5 21 10 22 110 22 57 0 106 -4
110 -9 4 -8 9 -184 6 -224 -1 -5 -15 1 -32 13 -28 20 -31 21 -48 6 -10 -9 -20
-14 -23 -11 -2 3 -4 -5 -4 -17 1 -17 -5 -23 -21 -24 -37 -2 -52 -28 -58 -101
-4 -37 -8 -84 -9 -103 -2 -19 -4 -61 -5 -93 -1 -43 -5 -59 -17 -64 -9 -3 -20
0 -24 7 -8 13 -23 179 -24 270 -1 53 0 55 34 72 19 9 43 17 53 18 10 0 27 9
39 20 l21 19 -39 -6 c-90 -13 -159 -30 -158 -39 1 -5 7 -72 13 -149 6 -77 14
-166 17 -199 l6 -59 49 6 c55 7 65 -5 19 -22 -30 -10 -30 -10 -30 -90 0 -69
-2 -80 -19 -86 -10 -3 -24 -19 -31 -34 -13 -34 -2 -64 30 -81 26 -14 26 -36 0
-50 -32 -17 -43 -47 -30 -81 7 -15 21 -31 31 -34 25 -8 24 -42 -2 -50 -24 -8
-42 -49 -33 -77 3 -10 16 -26 30 -34 31 -21 30 -30 -6 -64 -38 -35 -38 -54 0
-92 35 -34 38 -54 11 -63 -10 -3 -24 -19 -31 -34 -13 -34 -2 -64 30 -81 27
-15 25 -27 -10 -60 -38 -35 -38 -54 0 -92 16 -16 30 -36 30 -43 0 -8 17 -16
43 -20 84 -14 74 -25 -21 -24 l-94 2 -1 -137 -2 -136 133 0 132 0 0 134 c0
122 -2 134 -18 138 -15 4 -18 12 -14 37 3 25 -1 36 -27 58 -17 15 -31 31 -31
34 0 4 13 21 30 37 38 38 38 56 0 94 -16 16 -30 33 -30 37 0 3 14 18 30 33 38
33 38 62 0 98 -16 15 -30 30 -30 33 0 3 14 19 30 35 38 38 38 56 0 94 -16 16
-30 33 -30 37 0 3 14 18 30 33 17 14 30 36 30 48 0 12 -14 34 -30 48 -17 15
-30 30 -30 33 0 4 14 21 30 37 38 38 38 56 0 94 -36 35 -37 41 -8 60 l22 15
-22 30 c-18 25 -22 45 -22 107 0 69 2 76 20 76 11 0 20 1 20 3 0 1 7 76 15
167 8 91 15 191 15 223 0 67 11 73 30 17 12 -36 17 -40 47 -40 l33 0 0 170 0
169 -195 3 -195 3 0 -127z m90 7 c0 -65 -2 -75 -18 -75 -15 0 -18 10 -18 75 0
65 3 75 18 75 16 0 18 -10 18 -75z m146 -262 c-3 -21 -8 -76 -11 -123 -10
-150 -15 -180 -32 -180 -13 0 -15 9 -10 53 4 28 9 105 13 170 6 107 9 117 26
117 17 0 19 -5 14 -37z m-65 -415 c1 -18 1 -37 0 -42 -1 -5 5 -25 13 -46 9
-23 11 -42 5 -51 -16 -25 -10 -68 11 -79 25 -13 26 -44 2 -68 -22 -22 -20 -89
3 -109 4 -4 5 -2 0 6 -5 9 -4 12 3 7 19 -11 14 -45 -10 -79 -23 -32 -31 -57
-19 -57 4 0 15 -14 24 -30 18 -29 16 -70 -3 -70 -5 0 -11 -14 -15 -31 -5 -24
-2 -38 14 -60 26 -35 26 -50 3 -75 -23 -24 -22 -66 1 -92 23 -26 21 -48 -9
-87 -16 -21 -21 -36 -14 -40 6 -3 8 -11 5 -16 -4 -5 -2 -9 3 -9 9 0 44 -62 38
-68 -14 -14 -126 69 -126 94 0 16 33 74 42 74 11 0 -9 49 -27 66 -21 21 -19
46 5 72 26 27 26 64 0 87 -25 23 -25 36 0 77 25 41 25 59 0 88 -11 13 -20 27
-20 31 0 16 23 59 32 59 16 0 8 47 -12 73 -25 32 -25 43 4 91 24 38 24 39 5
60 -30 31 -35 67 -14 83 11 7 15 13 9 13 -5 0 -4 4 3 8 13 8 21 47 22 110 1
49 20 58 22 10z m-4 -1255 l-2 -98 -42 -3 c-30 -2 -43 1 -44 10 -1 13 -1 129
0 160 1 10 11 18 29 21 65 10 61 16 59 -90z m73 -18 c0 -88 -1 -95 -20 -95
-19 0 -20 7 -20 95 0 88 1 95 20 95 19 0 20 -7 20 -95z"/>
<path  d="M680 1690 c0 -63 3 -80 14 -80 8 0 27 -11 42 -24 21 -17 28 -33 28
-59 0 -41 -35 -87 -66 -87 -16 0 -18 -9 -18 -81 l0 -82 43 7 c95 15 176 93
196 188 26 120 -42 243 -154 282 -84 28 -85 27 -85 -64z m96 15 c4 -8 11 -15
18 -15 14 0 58 -46 76 -80 22 -41 16 -141 -11 -189 -12 -22 -24 -39 -26 -37
-3 2 -18 -9 -34 -25 -34 -33 -78 -39 -80 -11 -3 40 5 59 36 88 19 17 37 43 41
58 10 41 -12 102 -46 126 -25 18 -30 28 -30 61 0 35 3 39 25 39 14 0 28 -7 31
-15z"/>
<path  d="M1506 1643 c-16 -192 -34 -448 -31 -452 7 -7 34 105 40 164 28 289
33 325 48 325 29 0 87 22 82 31 -4 5 -35 9 -69 9 l-63 0 -7 -77z"/>
<path  d="M636 1558 c-21 -29 -20 -51 2 -71 37 -34 92 -11 92 38 0 52 -65 74
-94 33z"/>
<path  d="M1700 1345 l0 -195 153 0 c83 0 190 3 237 7 73 6 80 8 50 15 -19 4
-117 11 -217 14 l-183 7 0 153 0 152 38 6 c20 3 162 4 315 3 260 -3 278 -5
292 -23 22 -29 21 -256 -1 -278 -8 -9 -20 -16 -24 -16 -5 0 -17 -11 -26 -25
-13 -20 -16 -47 -15 -127 2 -121 10 -135 84 -144 43 -6 51 -11 62 -38 7 -17
22 -39 32 -47 18 -17 109 -62 128 -64 6 -1 31 -12 57 -24 56 -27 59 -39 58
-211 0 -63 1 -126 2 -140 3 -21 -1 -25 -26 -26 -27 -1 -28 0 -21 35 5 20 9 89
11 153 3 105 1 119 -17 142 -11 14 -27 26 -35 26 -9 0 -12 5 -8 12 5 8 2 9 -9
5 -9 -3 -35 0 -58 8 -52 19 -96 19 -131 1 -14 -8 -30 -10 -35 -5 -4 4 -44 9
-87 11 -76 3 -79 4 -62 21 17 16 10 17 -141 17 -87 0 -168 3 -180 6 -21 6 -23
3 -23 -35 0 -39 2 -41 30 -41 17 0 30 -4 30 -10 0 -5 -13 -10 -30 -10 -28 0
-30 -2 -30 -40 0 -38 2 -41 27 -38 19 2 28 -2 31 -14 3 -14 -3 -18 -27 -18
-24 0 -31 -4 -31 -20 0 -16 7 -20 31 -20 24 0 30 -4 27 -17 -2 -13 -11 -17
-31 -15 -23 3 -27 0 -27 -22 0 -22 4 -26 30 -26 20 0 30 -5 30 -15 0 -10 -10
-15 -30 -15 -16 0 -30 -4 -30 -9 0 -25 15 -41 37 -41 14 0 22 -4 18 -10 -4 -6
-11 -8 -16 -5 -21 14 -7 -15 18 -35 26 -20 36 -21 234 -18 187 3 209 5 228 22
21 19 30 43 12 31 -5 -3 -12 -1 -16 5 -4 6 5 10 19 10 14 0 26 4 26 9 0 5 3
16 6 25 5 12 0 16 -20 16 -16 0 -26 6 -26 15 0 9 9 15 25 15 20 0 25 5 25 26
0 23 -3 26 -25 22 -19 -4 -25 -1 -25 13 0 14 7 19 25 19 18 0 25 5 25 20 0 15
-7 20 -25 20 -18 0 -25 5 -25 20 0 17 5 19 25 14 24 -6 25 -4 25 35 0 39 -1
41 -31 41 -38 0 -30 16 13 24 21 3 63 -3 113 -18 l80 -23 3 -119 c3 -138 -5
-168 -54 -186 -24 -8 -34 -18 -34 -33 0 -19 6 -20 135 -20 131 0 135 1 135 21
0 14 -10 26 -29 33 -44 19 -51 47 -51 214 l0 152 -133 57 c-121 52 -132 59
-135 85 -6 48 -28 63 -94 63 l-58 0 0 110 c0 93 2 110 16 110 8 0 29 13 45 29
l29 29 0 142 c0 136 -1 142 -25 165 l-24 25 -346 0 -345 0 0 -195z m710 -655
c0 -6 -75 -10 -205 -10 -130 0 -205 4 -205 10 0 6 75 10 205 10 130 0 205 -4
205 -10z m-408 -45 c0 -5 -5 -11 -10 -13 -5 -1 -9 4 -9 13 0 9 4 14 9 13 5 -2
10 -8 10 -13z m408 -57 c0 -17 -16 -18 -205 -18 -164 0 -205 3 -205 13 0 8 2
16 4 18 2 2 95 4 205 4 185 0 201 -1 201 -17z m0 -75 c0 -17 -15 -18 -202 -16
-173 2 -203 5 -206 18 -3 13 23 15 202 15 190 0 206 -1 206 -17z m0 -78 c0
-13 -29 -15 -205 -15 -176 0 -205 2 -205 15 0 13 29 15 205 15 176 0 205 -2
205 -15z m0 -75 c0 -6 -75 -10 -205 -10 -130 0 -205 4 -205 10 0 6 75 10 205
10 130 0 205 -4 205 -10z"/>
<path  d="M1985 1435 c-22 -21 -25 -33 -25 -95 0 -108 11 -115 180 -111 102 2
114 14 111 113 -3 108 -16 118 -143 118 -92 0 -101 -2 -123 -25z m235 -95 l0
-80 -110 0 -110 0 0 80 0 80 110 0 110 0 0 -80z"/>
<path  d="M860 915 c-7 -8 -15 -30 -19 -47 -6 -30 -15 -36 -136 -89 l-130 -57
-2 -162 c-2 -172 -7 -190 -54 -205 -11 -4 -19 -16 -19 -28 0 -22 2 -22 132
-20 124 2 133 3 136 21 2 15 -4 22 -28 27 -53 12 -61 36 -58 180 l3 127 110
34 c125 38 140 40 131 19 -4 -11 2 -15 24 -15 17 0 30 -4 30 -10 0 -5 -13 -10
-30 -10 -28 0 -30 -2 -30 -41 0 -41 1 -41 30 -35 25 5 30 2 30 -14 0 -16 -7
-20 -30 -20 -23 0 -30 -4 -30 -20 0 -16 7 -20 30 -20 22 0 30 -5 30 -18 0 -15
-6 -18 -30 -14 -27 4 -30 1 -30 -22 0 -22 4 -26 30 -26 20 0 30 -5 30 -15 0
-10 -10 -15 -30 -15 -16 0 -30 -4 -30 -9 0 -25 14 -41 36 -41 13 0 24 -5 24
-11 0 -6 -7 -9 -15 -5 -22 8 -18 -8 6 -30 19 -17 41 -19 228 -22 198 -3 208
-2 234 18 32 25 35 40 7 33 -11 -3 -20 0 -20 6 0 6 13 11 29 11 26 0 41 14 41
41 0 5 -16 9 -35 9 -24 0 -35 5 -35 15 0 10 11 15 35 15 31 0 35 3 35 26 0 25
-2 26 -35 21 -30 -5 -35 -3 -35 14 0 15 7 19 35 19 28 0 35 4 35 20 0 16 -7
20 -35 20 -29 0 -35 4 -35 20 0 18 4 20 35 14 l35 -6 0 41 c0 40 -1 41 -35 41
-19 0 -35 5 -35 10 0 6 16 10 36 10 35 0 35 1 32 38 -2 28 -7 37 -20 36 -10 0
-105 -2 -210 -3 -165 -1 -190 -4 -169 -15 20 -11 21 -14 6 -19 -9 -4 -32 -7
-50 -7 -19 0 -37 -4 -40 -10 -6 -9 -45 10 -73 37 -7 6 -20 10 -30 8 -58 -14
-149 -41 -159 -48 -7 -5 -18 -5 -24 -2 -5 4 -26 -9 -44 -28 l-35 -36 1 -118
c0 -75 5 -123 12 -132 10 -12 9 -13 -3 -6 -12 6 -13 5 -2 -6 20 -22 15 -49
-10 -49 -40 0 -49 12 -37 51 6 18 10 84 9 145 -2 152 1 159 67 190 29 14 61
23 69 20 8 -3 13 -2 10 3 -3 4 17 19 45 32 46 21 77 52 71 72 -1 4 3 7 8 7 6
0 10 6 10 14 0 7 8 16 18 18 9 3 161 4 337 3 343 -2 555 6 595 23 18 8 -114
11 -471 11 -431 1 -498 -1 -509 -14z m535 -225 c4 -7 -62 -10 -189 -10 -124 0
-196 4 -196 10 0 6 70 10 189 10 116 0 192 -4 196 -10z m-388 -45 c0 -8 -6
-15 -14 -15 -14 0 -17 12 -6 23 11 11 20 8 20 -8z m408 4 c10 -15 -1 -23 -20
-15 -9 3 -13 10 -10 16 8 13 22 13 30 -1z m-25 -61 c0 -17 -16 -18 -190 -18
-174 0 -190 1 -190 18 0 16 16 17 190 17 174 0 190 -1 190 -17z m0 -75 c0 -17
-16 -18 -190 -18 -174 0 -190 1 -190 18 0 16 16 17 190 17 174 0 190 -1 190
-17z m0 -78 c0 -13 -28 -15 -190 -15 -162 0 -190 2 -190 15 0 13 28 15 190 15
162 0 190 -2 190 -15z m0 -75 c0 -6 -70 -10 -190 -10 -120 0 -190 4 -190 10 0
6 70 10 190 10 120 0 190 -4 190 -10z"/>
<path  d="M1186 849 c-51 -12 -103 -38 -109 -54 -6 -14 2 -13 87 11 36 10 116
14 285 15 130 0 254 4 276 8 l40 7 -40 12 c-48 14 -480 15 -539 1z"/>
<path  d="M1865 835 c-22 -21 -25 -33 -25 -90 0 -101 -5 -105 -106 -105 -75 0
-85 2 -82 18 3 14 -6 17 -59 20 l-63 3 0 -41 0 -40 176 0 175 0 -3 111 -3 110
145 -4 c87 -2 169 -11 205 -20 l60 -16 -28 24 c-44 39 -117 55 -249 55 -113 0
-120 -1 -143 -25z"/>
<path  d="M1623 793 l-93 -15 0 -38 0 -38 66 -7 c77 -8 94 -1 35 15 -61 16 -52
35 27 55 37 9 78 23 92 30 l25 14 -30 0 c-16 -1 -72 -8 -122 -16z"/>
</g>
</svg>
